<svg xmlns="http://www.w3.org/2000/svg" width="24" height="24" viewBox="0 0 24 24"><defs><style>.a{fill:#b5231b;}.b{fill:none;}</style></defs><path class="a" d="M15.121,3.432A2.811,2.811,0,0,0,14.625,9V12.71a4.363,4.363,0,0,1-4.5,4.2,4.363,4.363,0,0,1-4.5-4.2V12.4a5.07,5.07,0,0,0,4.5-5.031V.947a.417.417,0,0,0-.32-.408L7.857.054A.426.426,0,0,0,7.344.36L7.277.634a.426.426,0,0,0,.306.513L9,1.5V7.328a3.938,3.938,0,1,1-7.875.042V1.5l1.413-.355A.423.423,0,0,0,2.844.63L2.777.36A.423.423,0,0,0,2.264.054L.32.539A.417.417,0,0,0,0,.947v6.42A5.07,5.07,0,0,0,4.5,12.4v.313a5.49,5.49,0,0,0,5.625,5.33,5.489,5.489,0,0,0,5.625-5.326V9a2.813,2.813,0,0,0-.629-5.569Zm.067,4.5a1.688,1.688,0,1,1,1.688-1.687A1.688,1.688,0,0,1,15.187,7.932Zm.826-1.687a.826.826,0,1,1-.826-.826A.825.825,0,0,1,16.014,6.245Z" transform="translate(3 2.959)"/><rect class="b" width="24" height="24"/></svg>